/vscmnt/brussel_pixiu_data/_data_brussel/112/vsc11236/PredSimResults/SUBJ07opt3D/weighted-trackIG/worker_02.mot
version=1
nRows=7
nColumns=50
inDegrees=yes
endheader
                time	         pelvis_tilt	         pelvis_list	     pelvis_rotation	           pelvis_tx	           pelvis_ty	           pelvis_tz	       hip_flexion_r	     hip_adduction_r	      hip_rotation_r	        knee_angle_r	       ankle_angle_r	         mtp_angle_r	       hip_flexion_l	     hip_adduction_l	      hip_rotation_l	        knee_angle_l	       ankle_angle_l	         mtp_angle_l	    lumbar_extension	      lumbar_bending	     lumbar_rotation	 ercspn_r/activation	 intobl_r/activation	 extobl_r/activation	    abd_r/activation	    add_r/activation	hamstrings_r/activation	bifemsh_r/activation	glut_max_r/activation	iliopsoas_r/activation	rect_fem_r/activation	  vasti_r/activation	gastroc_r/activation	 soleus_r/activation	tib_ant_r/activation	 ercspn_l/activation	 intobl_l/activation	 extobl_l/activation	    abd_l/activation	    add_l/activation	hamstrings_l/activation	bifemsh_l/activation	glut_max_l/activation	iliopsoas_l/activation	rect_fem_l/activation	  vasti_l/activation	gastroc_l/activation	 soleus_l/activation	tib_ant_l/activation	
          0.53583761	         -4.34749540	          0.29170450	         -9.11305322	          0.69123052	          0.84613318	          0.01304810	        -15.08694372	         -0.31987334	          4.93350404	         -8.80993423	          7.51028256	         29.57733684	         31.16325163	         -2.58205699	         -5.65962330	         -7.95790224	          2.95809322	          0.28094769	        -12.11446804	          1.13958653	          1.80264934	          0.11748243	          0.00999999	          0.00999999	          0.03124382	          0.05271976	          0.01823448	          0.16652412	          0.01929673	          0.38434663	          0.01178611	          0.01092236	          0.16539647	          0.31268041	          0.01740835	          0.12582644	          0.12985132	          0.00999999	          0.01446102	          0.17687340	          0.09261629	          0.12277849	          0.10512566	          0.04388732	          0.00999999	          0.00999999	          0.00999999	          0.00999999	          0.43290573	
          0.54655436	         -4.33325702	          0.25473348	         -9.17142545	          0.70769284	          0.84440520	          0.01265012	        -15.57727867	         -0.42562161	          4.63472274	         -9.92012846	          6.52501032	         31.16748053	         31.09644534	         -2.38613566	         -5.30251725	         -9.81833449	          2.57844111	          0.25757427	        -11.96548230	          0.78667799	          1.98851232	          0.14082168	          0.00999999	          0.00999999	          0.02650899	          0.08224626	          0.01547114	          0.14128826	          0.01637241	          0.35868411	          0.00999999	          0.00999999	          0.14033151	          0.29168266	          0.01477021	          0.10675811	          0.13136684	          0.00999999	          0.01226953	          0.16279354	          0.08047828	          0.10846918	          0.16764797	          0.03723643	          0.00999999	          0.00999999	          0.01389126	          0.01178611	          0.47925181	
          0.55727111	         -4.31414161	          0.20723786	         -9.17464487	          0.72426590	          0.84289282	          0.01218620	        -15.85991215	         -0.49420063	          4.28302482	        -11.42444972	          5.44587445	         32.69827504	         30.89887068	         -2.23062646	         -4.93314154	        -11.48959132	          2.14478380	          0.24851980	        -11.81984160	          0.44080437	          2.16134489	          0.16273571	          0.00999999	          0.00999999	          0.02249169	          0.07396225	          0.01312660	          0.11987677	          0.01389126	          0.32051476	          0.00999999	          0.00999999	          0.11906500	          0.26889701	          0.01253186	          0.13722691	          0.11145889	          0.00999999	          0.09426984	          0.17768057	          0.07059188	          0.10068426	          0.17668340	          0.03159344	          0.00999999	          0.00999999	          0.01178611	          0.00999999	          0.56195567	
          0.56798787	         -4.29183731	          0.13988740	         -9.12466393	          0.74076063	          0.84174741	          0.01163352	        -15.87653452	         -0.51761873	          3.88888277	        -13.38777833	          4.23548572	         34.09888395	         30.65532615	         -2.08892034	         -4.63514273	        -13.06284370	          1.69017737	          0.22608370	        -11.69708838	          0.11411778	          2.31962581	          0.20055020	          0.00999999	          0.00999999	          0.01908319	          0.07362900	          0.01493921	          0.10171008	          0.01178611	          0.27194243	          0.00999999	          0.00999999	          0.10102133	          0.23218944	          0.01063272	          0.15469396	          0.09456788	          0.00999999	          0.14986603	          0.19027269	          0.05989406	          0.08542609	          0.20926415	          0.02680562	          0.00999999	          0.00999999	          0.00999999	          0.00999999	          0.58727657	
          0.57870462	         -4.26669435	          0.06210881	         -9.02696710	          0.75701062	          0.84111678	          0.01100470	        -15.57393014	         -0.50700881	          3.46228505	        -15.87080648	          2.90388560	         35.18731996	         30.45220734	         -1.95541637	         -4.39521114	        -14.73268451	          1.52585694	          0.20133776	        -11.60795427	         -0.20409724	          2.46022576	          0.24473959	          0.00999999	          0.00999999	          0.01619123	          0.09051353	          0.01597306	          0.08906796	          0.00999999	          0.23073099	          0.00999999	          0.00999999	          0.08571208	          0.19700235	          0.00999999	          0.16360348	          0.08023661	          0.00999999	          0.19310735	          0.20970090	          0.05081743	          0.07248022	          0.23540237	          0.02274337	          0.00999999	          0.02871992	          0.00999999	          0.00999999	          0.57821827	
          0.58942137	         -4.24004995	         -0.02067240	         -8.88335631	          0.77289120	          0.84114077	          0.01031343	        -14.90283294	         -0.46903182	          3.00679704	        -18.92796179	          1.46310671	         35.72076392	         30.30377042	         -1.82722710	         -4.20987092	        -16.50734632	          1.70778317	          0.17904343	        -11.55743505	         -0.51754426	          2.58027204	          0.27157474	          0.00999999	          0.00999999	          0.01373754	          0.12150978	          0.01724142	          0.07557019	          0.00999999	          0.19576492	          0.00999999	          0.00999999	          0.07272286	          0.16714768	          0.00999999	          0.17453205	          0.06807718	          0.00999999	          0.21288092	          0.23065718	          0.04533166	          0.06149622	          0.24506615	          0.01929673	          0.00999999	          0.05800665	          0.00999999	          0.00999999	          0.53226192	
          0.60013812	         -4.21325139	         -0.10840086	         -8.69559059	          0.78839779	          0.84185205	          0.00957962	        -13.84893231	         -0.40850748	          2.53682959	        -22.54835244	         -0.15992031	         35.58020278	         30.14017163	         -1.69804503	         -4.05909442	        -18.24741672	          2.20879600	          0.17334243	        -11.53604141	         -0.82371145	          2.67799944	          0.28951201	          0.00999999	          0.00999999	          0.01165569	          0.14837677	          0.01678288	          0.06483583	          0.00999999	          0.16609777	          0.00999999	          0.00999999	          0.06170209	          0.14181733	          0.00999999	          0.16284244	          0.05776044	          0.00999999	          0.21784484	          0.24059086	          0.04293502	          0.05217679	          0.23851524	          0.01637242	          0.00999999	          0.09713949	          0.00999999	          0.00999999	          0.45160043	
